<?xml version="1.0" standalone="no"?><!DOCTYPE svg PUBLIC "-//W3C//DTD SVG 1.1//EN" "http://www.w3.org/Graphics/SVG/1.1/DTD/svg11.dtd"><svg t="1535531118560" class="icon" style="" viewBox="0 0 1024 1024" version="1.1" xmlns="http://www.w3.org/2000/svg" p-id="3612" xmlns:xlink="http://www.w3.org/1999/xlink" width="32" height="32"><defs><style type="text/css"></style></defs><path d="M884.3 320L759.9 195.6c-7.5-7.5-17.6-11.7-28.2-11.7L708 185c-12.2 0.6-23.3 6.6-30.6 16.7-35.2 48.5-98.5 78.6-165.3 78.6s-130.2-30.1-165.4-78.6c-7.3-10-18.4-16.1-30.6-16.7l-22.6-1h-1.2c-10.7 0-20.7 4.1-28.2 11.7L139.7 320c-15.6 15.6-15.6 40.9 0 56.4l59.6 59.6c12.5 12.5 32.2 15.2 47.9 6.5 5-2.8 10.5-4.3 15.7-4.3 17.7 0 31.1 13.4 31.1 31.1v330.9c0 22 17.9 39.9 39.9 39.9h356.2c22 0 39.9-17.9 39.9-39.9V469.3c0-17.7 13.4-31.1 31.1-31.1 5.2 0 10.8 1.5 15.8 4.3 15.7 8.7 35.3 6 47.9-6.5l59.6-59.6c15.5-15.5 15.5-40.9-0.1-56.4z m-89.9 74.7c-10.6-4.7-22-7.1-33.3-7.1-45.8 0-81.7 35.9-81.7 81.7v320.2H344.6V469.3c0-45.8-35.9-81.7-81.7-81.7-11.3 0-22.7 2.5-33.3 7.1L183 348.2l113.5-113.5 12.1 0.6c45 59.1 122.4 95.6 203.4 95.6s158.4-36.5 203.4-95.6l12.1-0.6L841 348.2l-46.6 46.5z" p-id="3613"></path></svg>